<svg width="40" height="40" viewBox="0 0 40 40" fill="none" xmlns="http://www.w3.org/2000/svg">
<rect width="5" height="1" fill="#D9D9D9" fill-opacity="0.5"/>
<rect x="40" width="5" height="1" transform="rotate(90 40 0)" fill="#D9D9D9" fill-opacity="0.5"/>
<rect x="40" y="40" width="5" height="1" transform="rotate(-180 40 40)" fill="#D9D9D9" fill-opacity="0.5"/>
<rect y="40" width="5" height="1" transform="rotate(-90 0 40)" fill="#D9D9D9" fill-opacity="0.5"/>
<rect x="15" width="10" height="1" fill="#D9D9D9" fill-opacity="0.5"/>
<rect x="15" y="39" width="10" height="1" fill="#D9D9D9" fill-opacity="0.5"/>
<rect x="1" y="15" width="10" height="1" transform="rotate(90 1 15)" fill="#D9D9D9" fill-opacity="0.5"/>
<rect x="40" y="15" width="10" height="1" transform="rotate(90 40 15)" fill="#D9D9D9" fill-opacity="0.5"/>
<path d="M1 0L1 5L1.98616e-08 5L2.38419e-07 -4.37114e-08L1 0Z" fill="#D9D9D9" fill-opacity="0.5"/>
<path d="M40 1L35 1L35 -1.98695e-07L40 2.38419e-07L40 1Z" fill="#D9D9D9" fill-opacity="0.5"/>
<path d="M39 40L39 35L40 35L40 40L39 40Z" fill="#D9D9D9" fill-opacity="0.5"/>
<path d="M0 39L5 39L5 40L-1.74846e-07 40L0 39Z" fill="#D9D9D9" fill-opacity="0.5"/>
</svg>
