<svg width="90" height="90" viewBox="0 0 90 90" fill="none" xmlns="http://www.w3.org/2000/svg">
<rect width="90" height="90" fill="#5600E8"/>
<path d="M51.6512 22.68H62.0768C62.4992 22.68 62.864 22.8336 63.1712 23.1408C63.4784 23.448 63.632 23.8128 63.632 24.2352V61.4448C63.632 61.8672 63.4784 62.232 63.1712 62.5392C62.864 62.8464 62.4992 63 62.0768 63H52.976C51.9776 63 51.1904 62.5584 50.6144 61.6752L40.88 46.9872V61.4448C40.88 61.8672 40.7264 62.232 40.4192 62.5392C40.112 62.8464 39.7472 63 39.3248 63H28.8992C28.4768 63 28.112 62.8464 27.8048 62.5392C27.4976 62.232 27.344 61.8672 27.344 61.4448V24.2352C27.344 23.8128 27.4976 23.448 27.8048 23.1408C28.112 22.8336 28.4768 22.68 28.8992 22.68H38C39.0752 22.68 39.8624 23.1216 40.3616 24.0048L50.096 39.96V24.2352C50.096 23.8128 50.2496 23.448 50.5568 23.1408C50.864 22.8336 51.2288 22.68 51.6512 22.68Z" fill="white"/>
</svg>
