<svg width="90" height="90" viewBox="0 0 90 90" fill="none" xmlns="http://www.w3.org/2000/svg">
<rect width="90" height="90" fill="#5600E8"/>
<path d="M21.6 70.2L68.4 70.2" stroke="white" stroke-width="2.7" stroke-miterlimit="10" stroke-linecap="round" stroke-linejoin="round"/>
<path d="M51.4512 21.08H61.8768C62.2992 21.08 62.664 21.2336 62.9712 21.5408C63.2784 21.848 63.432 22.2128 63.432 22.6352V59.8448C63.432 60.2672 63.2784 60.632 62.9712 60.9392C62.664 61.2464 62.2992 61.4 61.8768 61.4H52.776C51.7776 61.4 50.9904 60.9584 50.4144 60.0752L40.68 45.3872V59.8448C40.68 60.2672 40.5264 60.632 40.2192 60.9392C39.912 61.2464 39.5472 61.4 39.1248 61.4H28.6992C28.2768 61.4 27.912 61.2464 27.6048 60.9392C27.2976 60.632 27.144 60.2672 27.144 59.8448V22.6352C27.144 22.2128 27.2976 21.848 27.6048 21.5408C27.912 21.2336 28.2768 21.08 28.6992 21.08H37.8C38.8752 21.08 39.6624 21.5216 40.1616 22.4048L49.896 38.36V22.6352C49.896 22.2128 50.0496 21.848 50.3568 21.5408C50.664 21.2336 51.0288 21.08 51.4512 21.08Z" fill="white"/>
</svg>
